<svg width="512" height="512" viewBox="0 0 512 512" fill="none" xmlns="http://www.w3.org/2000/svg">
<g clip-path="url(#clip0_6_14)">
<circle cx="256" cy="256" r="256" fill="black"/>
<path d="M121.068 139H188V146C188 146.824 187.856 147.615 187.594 148.35L187.626 148.354L185.388 164.273C185.477 164.23 185.567 164.186 185.656 164.143L167.678 292.069C167.071 295.18 166.623 298.348 166.344 301.564L166.205 302.553L166.262 302.561C166.088 304.851 166 307.165 166 309.5C166 359.482 206.518 400 256.5 400C306.482 400 347 359.482 347 309.5C347 274.226 326.818 243.665 297.372 228.734L307.534 156.426C371.177 177.914 417 238.105 417 309C417 397.918 344.918 470 256 470C167.082 470 95 397.918 95 309C95 300.334 95.6858 291.829 97.0039 283.534L96.9307 283.524L117.316 138.473L121.068 139ZM297.989 43.1396C298.232 43.1712 298.475 43.2041 298.718 43.2383L252.166 374.473L245.556 373.544C210.554 368.625 186.166 336.262 191.085 301.26L217.544 113H121C121 73.7878 152.788 42 192 42H298C298 42.3806 297.995 42.7605 297.989 43.1396Z" fill="white"/>
</g>
<defs>
<clipPath id="clip0_6_14">
<rect width="512" height="512" fill="white"/>
</clipPath>
</defs>
</svg>
