<svg width="322" height="428" viewBox="0 0 322 428" fill="none" xmlns="http://www.w3.org/2000/svg">
<path d="M26.0684 97H93V104C93 104.824 92.8555 105.615 92.5938 106.35L92.626 106.354L90.3887 122.272C90.4779 122.229 90.567 122.185 90.6562 122.142L72.6777 250.069C72.0707 253.18 71.6231 256.348 71.3438 259.564L71.2051 260.553L71.2617 260.561C71.088 262.851 71 265.165 71 267.5C71 317.482 111.518 358 161.5 358C211.482 358 252 317.482 252 267.5C252 232.226 231.818 201.665 202.372 186.734L212.534 114.425C276.178 135.913 322 196.105 322 267C322 355.918 249.918 428 161 428C72.0822 428 0 355.918 0 267C0 258.334 0.685772 249.829 2.00391 241.534L1.93066 241.524L22.3164 96.4727L26.0684 97ZM202.989 1.13965C203.232 1.17124 203.475 1.20414 203.718 1.23828L157.166 332.473L150.556 331.544C115.554 326.625 91.1659 294.262 96.085 259.26L122.544 71H26C26 31.7878 57.7878 0 97 0H203C203 0.380599 202.995 0.760471 202.989 1.13965Z" fill="white"/>
</svg>
